<svg width="30.000000" height="28.000000" viewBox="0 0 30 28" fill="none" xmlns="http://www.w3.org/2000/svg" xmlns:xlink="http://www.w3.org/1999/xlink">
	<desc>
			Created with Pixso.
	</desc>
	<defs/>
	<path id="Vector" d="M12.91 1.23L12.91 6.26C12.91 6.94 12.36 7.49 11.68 7.49C9.26 7.49 7.94 9.99 7.76 14.91L11.68 14.91C12.36 14.91 12.91 15.46 12.91 16.15L12.91 26.76C12.91 27.44 12.36 27.99 11.68 27.99L1.22 27.99C0.55 27.99 0 27.44 0 26.76L0 16.15C0 13.78 0.23 11.62 0.7 9.71C1.18 7.74 1.91 6.03 2.88 4.61C3.88 3.15 5.13 2 6.59 1.21C8.06 0.4 9.78 0 11.68 0C12.36 0 12.91 0.55 12.91 1.23ZM28.77 7.49C29.44 7.49 30 6.94 30 6.26L30 1.23C30 0.55 29.44 0 28.77 0C26.86 0 25.15 0.4 23.67 1.21C22.21 2 20.96 3.15 19.96 4.61C18.99 6.03 18.26 7.75 17.78 9.71C17.31 11.62 17.08 13.79 17.08 16.15L17.08 26.76C17.08 27.44 17.63 28 18.31 28L28.77 28C29.44 28 30 27.44 30 26.76L30 16.15C30 15.46 29.44 14.91 28.77 14.91L24.9 14.91C25.08 9.99 26.38 7.49 28.77 7.49Z" fill="#634700" fill-opacity="1.000000" fill-rule="nonzero"/>
</svg>
